#N canvas 93 147 1337 562 10;
#X obj -10 -692 hsl 128 15 0.001 0.9 0 0 empty empty empty -2 -8 0
10 -262144 -1 -1 3497 1;
#X obj -13 -667 s dynamics;
#N canvas 58 44 544 408 automation 0;
#X obj 77 27 snapshot~;
#X obj 15 0 metro 10;
#X obj 15 -27 loadbang;
#X obj 145 27 snapshot~;
#X obj 77 108 +;
#X obj 77 81 + 0.125;
#X obj 77 54 * 0.125;
#X obj 145 54 * 0.25;
#X obj 145 81 + 0.25;
#X obj 145 0 osc~ 0.3;
#X obj 77 135 spigot;
#X obj 110 110 tgl 15 1 empty empty automation 17 7 0 10 -262144 -1
-1 0 1;
#X obj 77 162 outlet;
#X obj 77 0 osc~ 0.04;
#X connect 0 0 6 0;
#X connect 1 0 0 0;
#X connect 1 0 3 0;
#X connect 2 0 1 0;
#X connect 3 0 7 0;
#X connect 4 0 10 0;
#X connect 5 0 4 0;
#X connect 6 0 5 0;
#X connect 7 0 8 0;
#X connect 8 0 4 1;
#X connect 9 0 3 0;
#X connect 10 0 12 0;
#X connect 11 0 10 1;
#X connect 13 0 0 0;
#X coords 0 -1 1 1 95 36 2 100 100;
#X restore -13 -737 pd automation;
#N canvas 446 346 1044 450 water_sound_generator 0;
#X obj -818 -438 noise~;
#X obj -818 -411 s~ noise;
#N canvas 854 189 757 692 water 0;
#X obj 24 2 water;
#X obj 156 1 water;
#X obj 24 28 water;
#X obj 68 1 water;
#X obj 68 28 water;
#X obj 112 1 water;
#X obj 112 28 water;
#X obj 156 28 water;
#X obj 200 1 water;
#X obj 200 28 water;
#X obj 244 1 water;
#X obj 244 28 water;
#X obj 288 1 water;
#X obj 288 28 water;
#X restore -818 -384 pd water;
#X connect 0 0 1 0;
#X restore 61 -667 pd water_sound_generator;
#X text -15 -546 Author: Alexey Reshetnikov (freezemode) \, Izhevsk
\, Russia.;
#X obj -13 -613 recorder;
#X text 66 -604 You can record 32-bit stereo file.;
#X obj -13 -640 catch~ stream_left;
#X obj 109 -640 catch~ stream_right;
#X text 90 -729 Switch automation off to play with this slider manually.
;
#X connect 0 0 1 0;
#X connect 2 0 0 0;
#X connect 7 0 5 0;
#X connect 8 0 5 1;
#X coords 0 562 1 561 85 60 0;
